<?xml version="1.0" encoding="utf-8"?>
<!-- Generator: Adobe Illustrator 16.2.1, SVG Export Plug-In . SVG Version: 6.00 Build 0)  -->
<!DOCTYPE svg PUBLIC "-//W3C//DTD SVG 1.1//EN" "http://www.w3.org/Graphics/SVG/1.1/DTD/svg11.dtd">
<svg version="1.1" id="Layer_1" xmlns="http://www.w3.org/2000/svg" xmlns:xlink="http://www.w3.org/1999/xlink" x="0px" y="0px"
	 width="432px" height="432px" viewBox="0 0 432 432" enable-background="new 0 0 432 432" xml:space="preserve">
<path d="M189.652,94.316c-5.706-3.857-0.6-6.853,3.029-10.119c3.624-3.277,4.823-4.908,9.053-6.55
	c4.233-1.609,5.434-2.922,3.623-6.191c-1.811-3.255-5.43-4.897-8.453-4.568c-3.018,0.318-4.829,2.288-12.082,3.586
	c-7.244,1.322-19.926,1.962-21.737-6.509c-1.812-8.521-9.664-34.958-5.435-39.825c4.223-4.921,17.516-14.042,24.15-15.036
	c6.651-0.976,16.915-1.971,25.969-0.331c9.062,1.629,28.996,11.089,32.617,16.655c3.633,5.548,10.876,16.307,3.633,23.837
	c-7.254,7.508-19.936,9.133-19.936,14.027c0,4.908,6.641,11.759,1.816,15.667C221.07,82.899,192.075,95.956,189.652,94.316z"/>
<path d="M277.336,194.051c-2.289,0.288-4.526-0.824-4.526,5.878c0,6.677,0,33.12,0,33.12s-8.452,4.263-9.968,10.786
	c-1.509,6.522-3.019,10.272-1.202,12.242c1.802,1.952,2.104,0.97,3.024,0.169c0.901-0.826,0.3,0.961,0.901-2.964
	c0.601-3.896,2.411-9.933,2.711-7.478c0.3,2.442-0.3,7.335,0.3,10.76c0.62,3.437,1.517,8.985,1.822,9.643
	c0.295,0.646,0.902,0.8,3.019,0.8c2.11,0,1.809,0.174,1.51-2.612c-0.301-2.769-1.964-19.994,0-18.948
	c1.956,1.092,2.409-2.923,2.109,3.785c-0.295,6.678,0.602,20.242,1.815,21.057c1.208,0.786,4.527,1.786,4.828,0.643
	c0.3-1.145,2.109-13.884,1.515-16.982c-0.6-3.106-2.417-8.144-0.6-4.893c1.796,3.267,1.796,16.812,3.619,17.798
	c1.808,0.978,4.23-0.815,4.23-1.643c0-0.816,0-14.201,0.604-15.329c0.593-1.152,1.208-4.723,2.114,2.283
	c0.901,7.009,0,11.104,2.712,7.321c2.718-3.736,2.122-2.751,2.122-5.691c0-2.953,0.302-6.196-0.301-8.636
	c-0.619-2.467-3.03-4.75-6.354-6.863c-3.319-2.137-8.746-3.435-8.746-4.917c0-1.456,0-38.526,0-38.526
	S281.263,193.564,277.336,194.051z"/>
<path d="M155.21,158.398c-2.322,0.159-4.385-1.293-5.393,6.436c-1.007,7.702-4.989,38.196-4.989,38.196s-9.054,4.275-11.539,11.683
	c-2.484,7.411-4.551,11.617-3.041,14.029c1.499,2.389,1.947,1.278,2.984,0.424c1.019-0.886,0.151,1.129,1.339-3.353
	c1.188-4.444,3.895-11.271,3.829-8.413c-0.073,2.836-1.407,8.433-1.327,12.431c0.102,4.008,0.159,10.478,0.363,11.258
	c0.197,0.767,0.775,0.993,2.88,1.152c2.105,0.161,1.776,0.337,1.9-2.898c0.118-3.216,1.056-23.209,2.852-21.854
	c1.785,1.409,2.841-3.188,1.53,4.527c-1.301,7.677-2.449,23.389-1.367,24.421c1.084,1,4.24,2.404,4.708,1.107
	c0.475-1.295,4.193-15.85,4.064-19.471c-0.131-3.628-1.177-9.574,0.138-5.689c1.299,3.906-0.74,19.528,0.921,20.802
	c1.654,1.266,4.335-0.618,4.461-1.573c0.121-0.941,2.137-16.375,2.906-17.633c0.769-1.284,1.914-5.354,1.765,2.794
	c-0.162,8.152-1.671,12.809,1.592,8.651c3.271-4.102,2.525-3.015,2.968-6.404c0.444-3.405,1.233-7.122,1.002-9.982
	c-0.245-2.895-2.3-5.712-5.286-8.396c-2.985-2.72-8.191-4.629-7.967-6.337c0.219-1.679,5.801-44.432,5.801-44.432
	S159.186,158.137,155.21,158.398z"/>
<path d="M216.436,256.456c5.355-2.896,8.847-2.821,12.064-2.4c3.237,0.431,14.1,4.581,14.501,7.402c0.409,2.848,0,115.362,0,115.362
	s7.245,0.437,9.265,6.298c2.016,5.878,3.62,14.596,1.599,16.341c-1.995,1.742-3.618,1.742-6.029,7.831
	c-2.424,6.089,0.798,14.145-2.424,14.802c-3.215,0.655-5.624,3.264-7.239,0.655c-1.603-2.608-2.42-4.79-3.621-2.822
	c-1.207,1.957-5.638,4.12-6.444,3.042c-0.807-1.085,0.807-4.119-1.209-2.399c-2.009,1.759-6.035,3.912-6.443,1.759
	c-0.396-2.188,1.613-3.713-3.221-1.759c-4.83,1.96-9.664,2.837-9.26,0.646c0.412-2.151,0.809-1.928,1.616-4.343
	c0.799-2.418-1.205-3.714-3.22-0.222c-2.015,3.489-4.031,5.442-7.252,5.442c-3.225,0-14.493,0-11.678-3.244
	c2.813-3.274,8.057-3.711,10.065-5.033c2.016-1.299,8.865-8.047,10.066-9.792c1.212-1.741,0-5.446,7.252-10.893
	c7.245-5.433,14.091-8.041,15.697-9.55c1.612-1.538,3.228-5.446,3.228-6.548c0-1.073,0-54.205,0-54.205s-13.293-1.72-14.9-4.792
	c-1.613-3.044-5.64-6.718-2.016-11.519c3.623-4.8,8.451-5.875,8.854-7.191c0.412-1.301,0.814-4.777-1.603-9.996
	C221.67,284.116,213.604,257.992,216.436,256.456z"/>
<path d="M173.303,250.357c6.486-0.527,13.277,4.12,14.417,5.193c1.143,1.105,3.039,7.372-0.375,8.887
	c-3.414,1.521-4.928,0.665-5.699,4.999c-0.754,4.315,0,86.234,0,86.234s6.833,6.07,6.463,9.109c-0.389,3.012,6.813,1.728,3.02,7.148
	c-3.793,5.422-6.813,5.21-9.482,6.286c-2.653,1.072-6.058,3.465-6.443,5.846c-0.369,2.392-21.232,11.485-26.166,11.276
	c-4.934-0.222,2.263,1.942-6.079,3.476c-8.341,1.508-14.415,3.677-12.521-0.441c1.899-4.122,0.766-4.35,4.559-4.99
	c3.793-0.658,2.274-1.298-0.766-1.942c-3.027-0.645-5.687-0.207-6.066-1.308c-0.375-1.079,0,0.234-1.896-1.289
	c-1.896-1.522-2.653-1.312-0.379-2.821c2.275-1.521-4.548,0.196-1.896-1.96c2.653-2.173,2.653-1.71,6.443-2.583
	c3.793-0.878,6.833-1.087,9.485-2.604c2.66-1.522,21.624-16.483,25.794-16.483c4.178,0,4.938-0.212,4.938-2.811
	c0-2.597,0-56.134,0-56.134s-14.795-1.944-12.901-5.842c1.899-3.908-0.375-2.385,3.414-4.76c3.795-2.399,5.307-2.835,5.693-4.562
	c0.387-1.737-6.832-28.188-5.313-30.117C163.066,256.222,170.655,250.563,173.303,250.357z"/>
<g>
	<path d="M197.794,186.601c-0.439-1.642-0.958-3.148-1.221-4.667c-0.272-1.565-0.436-3.161-0.392-4.706
		c0.039-1.324,0.996-2.112,2.19-2.204c1-0.071,2.206,0.029,3.111,0.55c1.256,0.725,2.22,2.119,3.47,2.867
		c7.899,4.725,15.8,5.702,23.648,3.162c6.904-2.236,11.645-6.982,14.318-13.822c2.782-7.085,2.885-14.728,0.358-22.732
		c-2.271-7.192-6.344-12.995-12.735-17.067c-6.073-3.866-12.287-3.746-16.287,0.641c-1.203,1.323-2.199,1.149-3.559,0.187
		c-0.573-0.412-1.242-0.777-1.655-1.323c-1.306-1.728-2.511-3.539-3.876-5.489c-2.238,0.354-4.779,0.75-7.41,1.166
		c1.949,6.521,5.771,11.24,11.689,14.042c1.181,0.56,1.691,1.184,1.913,2.425c0.641,3.573,2.402,6.623,5.041,9.253
		c0.363,0.359,0.551,1.095,0.566,1.637c0.077,2.759,0.118,5.529,0.063,8.273c-0.012,0.692-0.259,1.467-0.667,1.945
		c-1.214,1.433-2.531,2.763-3.873,4.064c-0.408,0.397-0.977,0.74-1.547,0.812c-2.951,0.371-5.823,0.88-8.415,2.27
		c-0.784,0.414-1.807,0.611-2.74,0.539c-5.355-0.411-9.138,2.246-9.824,7.126c-0.563,4.011,0.842,7.941,1.934,11.981
		C193.895,187.214,195.724,186.924,197.794,186.601z"/>
</g>
<ellipse cx="208.647" cy="213.428" rx="6.138" ry="5.776"/>
</svg>
