<?xml version="1.0" encoding="utf-8"?>
<!-- Generator: Adobe Illustrator 16.2.1, SVG Export Plug-In . SVG Version: 6.00 Build 0)  -->
<!DOCTYPE svg PUBLIC "-//W3C//DTD SVG 1.1//EN" "http://www.w3.org/Graphics/SVG/1.1/DTD/svg11.dtd">
<svg version="1.1" id="Layer_1" xmlns="http://www.w3.org/2000/svg" xmlns:xlink="http://www.w3.org/1999/xlink" x="0px" y="0px"
	 width="599.4px" height="753.84px" viewBox="0 0 599.4 753.84" enable-background="new 0 0 599.4 753.84" xml:space="preserve">
<rect x="-11.614" y="-7.5" fill-rule="evenodd" clip-rule="evenodd" stroke="#000000" stroke-miterlimit="10" width="622.222" height="770.271"/>
<circle fill-rule="evenodd" clip-rule="evenodd" fill="#FFFFFF" cx="513.5" cy="130.865" r="10.5"/>
<circle fill-rule="evenodd" clip-rule="evenodd" fill="#FFFFFF" cx="513.5" cy="57.5" r="10.5"/>
<circle fill-rule="evenodd" clip-rule="evenodd" fill="#FFFFFF" cx="513.5" cy="208.843" r="10.5"/>
<circle fill-rule="evenodd" clip-rule="evenodd" fill="#FFFFFF" cx="513.5" cy="289.806" r="10.5"/>
<g>
	<g>
		<polygon fill-rule="evenodd" clip-rule="evenodd" fill="#2A7CC0" stroke="#FFFFFF" stroke-miterlimit="10" points="
			509.496,699.16 509.496,699.16 511.179,659.602 516.137,660.009 		"/>
		<polygon fill-rule="evenodd" clip-rule="evenodd" fill="#2A7CC0" stroke="#FFFFFF" stroke-miterlimit="10" points="
			509.524,698.892 509.524,698.892 521.093,660.683 525.808,662.134 		"/>
		<polygon fill-rule="evenodd" clip-rule="evenodd" fill="#2A7CC0" stroke="#FFFFFF" stroke-miterlimit="10" points="
			508.696,699.009 508.696,699.009 530.265,664.603 534.421,667.098 		"/>
		<polygon fill-rule="evenodd" clip-rule="evenodd" fill="#2A7CC0" stroke="#FFFFFF" stroke-miterlimit="10" points="
			509.234,698.415 509.234,698.415 538.272,669.003 541.746,672.262 		"/>
		<polygon fill-rule="evenodd" clip-rule="evenodd" fill="#2A7CC0" stroke="#FFFFFF" stroke-miterlimit="10" points="
			509.442,698.223 509.442,698.223 545.024,675.73 547.579,679.647 		"/>
		<polygon fill-rule="evenodd" clip-rule="evenodd" fill="#2A7CC0" stroke="#FFFFFF" stroke-miterlimit="10" points="
			508.733,697.822 508.733,697.822 549.224,684.198 550.621,688.589 		"/>
		<polygon fill-rule="evenodd" clip-rule="evenodd" fill="#2A7CC0" stroke="#FFFFFF" stroke-miterlimit="10" points="
			511.346,697.581 511.346,697.581 469,691.105 470.141,686.634 		"/>
		<polygon fill-rule="evenodd" clip-rule="evenodd" fill="#2A7CC0" stroke="#FFFFFF" stroke-miterlimit="10" points="
			511.062,697.523 511.062,697.523 471.574,682.196 473.801,678.077 		"/>
		<polygon fill-rule="evenodd" clip-rule="evenodd" fill="#2A7CC0" stroke="#FFFFFF" stroke-miterlimit="10" points="
			511.071,698.296 511.071,698.296 477.096,674.318 480.369,670.838 		"/>
		<polygon fill-rule="evenodd" clip-rule="evenodd" fill="#2A7CC0" stroke="#FFFFFF" stroke-miterlimit="10" points="
			510.506,697.729 510.506,697.729 482.968,667.559 486.968,664.799 		"/>
		<polygon fill-rule="evenodd" clip-rule="evenodd" fill="#2A7CC0" stroke="#FFFFFF" stroke-miterlimit="10" points="
			510.331,697.514 510.331,697.514 491.168,662.24 495.749,660.4 		"/>
		<polygon fill-rule="evenodd" clip-rule="evenodd" fill="#2A7CC0" stroke="#FFFFFF" stroke-miterlimit="10" points="
			509.799,698.11 509.799,698.11 500.882,659.468 505.807,658.74 		"/>
		<polygon fill-rule="evenodd" clip-rule="evenodd" fill="#2A7CC0" stroke="#FFFFFF" stroke-miterlimit="10" points="
			510.415,694.904 510.415,694.904 508.642,734.461 503.685,734.043 		"/>
		<polygon fill-rule="evenodd" clip-rule="evenodd" fill="#2A7CC0" stroke="#FFFFFF" stroke-miterlimit="10" points="
			510.391,695.174 510.391,695.174 498.731,733.358 494.023,731.899 		"/>
		<polygon fill-rule="evenodd" clip-rule="evenodd" fill="#2A7CC0" stroke="#FFFFFF" stroke-miterlimit="10" points="
			511.216,695.057 511.216,695.057 489.571,729.421 485.421,726.918 		"/>
		<polygon fill-rule="evenodd" clip-rule="evenodd" fill="#2A7CC0" stroke="#FFFFFF" stroke-miterlimit="10" points="
			510.676,695.65 510.676,695.65 481.568,725.006 478.108,721.737 		"/>
		<polygon fill-rule="evenodd" clip-rule="evenodd" fill="#2A7CC0" stroke="#FFFFFF" stroke-miterlimit="10" points="
			510.467,695.84 510.467,695.84 474.833,718.262 472.29,714.341 		"/>
		<polygon fill-rule="evenodd" clip-rule="evenodd" fill="#2A7CC0" stroke="#FFFFFF" stroke-miterlimit="10" points="
			511.176,696.244 511.176,696.244 470.657,709.789 469.267,705.394 		"/>
		<polygon fill-rule="evenodd" clip-rule="evenodd" fill="#2A7CC0" stroke="#FFFFFF" stroke-miterlimit="10" points="
			508.562,696.475 508.562,696.475 550.893,703.037 549.743,707.511 		"/>
		<polygon fill-rule="evenodd" clip-rule="evenodd" fill="#2A7CC0" stroke="#FFFFFF" stroke-miterlimit="10" points="
			508.846,696.538 508.846,696.538 548.299,711.943 546.062,716.058 		"/>
		<polygon fill-rule="evenodd" clip-rule="evenodd" fill="#2A7CC0" stroke="#FFFFFF" stroke-miterlimit="10" points="
			508.838,695.767 508.838,695.767 542.762,719.809 539.479,723.286 		"/>
		<polygon fill-rule="evenodd" clip-rule="evenodd" fill="#2A7CC0" stroke="#FFFFFF" stroke-miterlimit="10" points="
			509.404,696.331 509.404,696.331 536.872,726.559 532.861,729.312 		"/>
		<polygon fill-rule="evenodd" clip-rule="evenodd" fill="#2A7CC0" stroke="#FFFFFF" stroke-miterlimit="10" points="
			509.579,696.549 509.579,696.549 528.655,731.861 524.072,733.691 		"/>
		<polygon fill-rule="evenodd" clip-rule="evenodd" fill="#2A7CC0" stroke="#FFFFFF" stroke-miterlimit="10" points="
			510.113,695.952 510.113,695.952 518.938,734.613 514.014,735.333 		"/>
	</g>
	<path fill-rule="evenodd" clip-rule="evenodd" fill="none" stroke="#FFFFFF" stroke-width="9" stroke-miterlimit="10" d="
		M469.587,700.974c-2.349-20.563,13.806-38.823,36.081-40.791c22.274-1.969,42.239,13.104,44.587,33.666
		c2.349,20.561-13.806,38.827-36.08,40.792C491.896,736.609,471.933,721.535,469.587,700.974z"/>
	<g>
		<path fill-rule="evenodd" clip-rule="evenodd" fill="#FFE300" stroke="#FFFFFF" stroke-miterlimit="10" d="M495.914,717.074
			c-1.812-1.505-2.005-2.566-0.793-4.608c2.14-3.609,4.236-7.247,6.591-10.749c1.932-2.87,2.063-5.421-0.283-8.175
			c-1.716-2.011-1.836-4.453-0.794-6.764c2.127-4.715,4.878-9.156,8.674-13c0.4-0.408,2.464-0.308,2.821,0.135
			c2.839,3.532,5.512,7.174,8.101,10.854c0.72,1.027,1.122,2.275,1.427,3.469c0.5,1.941-0.09,3.751-1.409,5.348
			c-1.957,2.356-2.074,4.757-0.418,7.277c2.388,3.624,4.776,7.251,7.067,10.922c0.618,0.987,0.901,2.135,1.328,3.193
			c-1.839,0.983-2.89,0.848-3.9-0.609c-3.734-5.377-7.607-10.679-11.402-16.026c-1.212-1.709-2.464-1.758-3.635-0.077
			c-3.858,5.524-7.712,11.051-11.578,16.567C497.188,715.574,496.568,716.259,495.914,717.074z M510.338,677.702
			c-0.387,1.285-0.535,2.022-0.829,2.712c-0.983,2.321-2.084,4.604-3.009,6.94c-0.792,1.996-0.128,3.959,1.477,4.948
			c1.578,0.979,4.705,0.842,6.259-0.27c1.603-1.152,2.156-3.104,1.304-4.977c-1.146-2.517-2.322-5.021-3.577-7.495
			C511.652,678.946,511.015,678.456,510.338,677.702z"/>
	</g>
	<g id="ylY6gO_3_">
		<g>
			<path fill-rule="evenodd" clip-rule="evenodd" stroke="#FFFFFF" stroke-miterlimit="10" d="M506.038,734.446
				c-2.036,0-3.877,0-5.767,0c-0.069-0.459-0.197-0.808-0.165-1.145c0.338-3.604-1.837-5.739-5.331-7.121
				c-0.795-0.314-1.554-0.702-2.354-1.001c-1.757-0.65-2.586-1.83-3.117-3.427c-1.401-4.211-2.133-8.489-2.393-12.858
				c-0.081-1.327-0.531-2.638-0.815-3.959c0.192-0.103,0.383-0.208,0.575-0.312c0.735,0.993,1.706,1.911,2.154,2.991
				c0.817,1.991,1.455,4.054,1.935,6.127c0.709,3.074,3.104,4.953,5.758,6.748c-1.076-2.786-3.831-5.023-3.134-8.534
				c0.625,0.522,1.295,1.011,1.868,1.571c2.985,2.917,6.04,5.793,8.874,8.818c0.933,0.991,1.706,2.359,1.831,3.61
				C506.232,728.703,506.038,731.484,506.038,734.446z"/>
			<path fill-rule="evenodd" clip-rule="evenodd" stroke="#FFFFFF" stroke-miterlimit="10" d="M529.226,712.36
				c0.004,3.112-2.492,5.378-3.719,8.11c2.488-1.57,4.747-3.295,5.592-6.043c0.658-2.161,1.189-4.364,2.013-6.476
				c0.467-1.189,1.417-2.235,2.145-3.34c0.229,0.096,0.454,0.195,0.68,0.291c-0.28,1.356-0.752,2.706-0.812,4.068
				c-0.196,4.382-1.032,8.646-2.4,12.858c-0.502,1.545-1.31,2.677-2.98,3.317c-0.613,0.237-1.207,0.52-1.82,0.757
				c-3.814,1.456-6.435,3.626-5.98,7.666c0.028,0.272-0.127,0.559-0.21,0.891c-1.903,0-3.751,0-5.558,0
				c0-3.172-0.16-6.232,0.088-9.261c0.087-1.046,1.032-2.148,1.869-3.012c2.684-2.766,5.498-5.43,8.265-8.133
				c0.719-0.702,1.442-1.4,2.16-2.1C528.78,712.09,529,712.224,529.226,712.36z"/>
		</g>
	</g>
	<path fill-rule="evenodd" clip-rule="evenodd" fill="none" stroke="#FFFFFF" stroke-miterlimit="10" d="M512.48,695.174
		c0,0.645-0.628,1.17-1.401,1.17c-0.771,0-1.4-0.525-1.4-1.17c0-0.649,0.63-1.174,1.4-1.174
		C511.853,694,512.48,694.524,512.48,695.174z"/>
</g>
<rect x="-632" y="440.102" fill-rule="evenodd" clip-rule="evenodd" fill="none" width="489.08" height="95.898"/>
<text transform="matrix(1 0 0 1 -632 468.4502)" fill="#FFFFFF" font-family="'CrackMan-Regular'" font-size="42">Ultimate Grizpper</text>
<rect x="-677" y="560" fill-rule="evenodd" clip-rule="evenodd" fill="none" width="615.08" height="95.898"/>
<text transform="matrix(1 0 0 1 -677 606.0557)" fill="#FFFFFF" stroke="#000000" stroke-miterlimit="10" font-family="'MINECRAFTPE'" font-size="57">Ultimate Gripper</text>
<rect x="21" y="684" fill-rule="evenodd" clip-rule="evenodd" fill="none" width="445.08" height="95.898"/>
<text transform="matrix(1 0 0 1 21 716.3203)" fill="#FFFFFF" font-family="'MINECRAFTPE'" font-size="40">Ultimate Gripper</text>
<g>
	<path fill-rule="evenodd" clip-rule="evenodd" fill="#68C7BC" d="M541.102,394.261c2.752-1.975,3.188-2.774,2.074-5.93
		c-1.096-3.102-1.246-6.164-0.825-9.232c0.021-1.743,0.343-3.492,0.959-5.099c-0.027-0.434-0.142-0.853-0.378-1.103
		c-3.605-3.827-7.55-7.195-13.347-8.047c-0.925-0.136-2.042-0.906-2.504-1.672c-3.983-6.589-10.572-7.757-17.378-5.272
		c-4.026,1.47-8.282,3.055-10.821,6.461c-2.588-0.104-4.202-1.188-5.665-2.922c-2.561-3.035-7.896-3.854-11.679-1.842
		c-2.015,1.072-3.736,2.605-5.604,3.917c-0.274,0.192-0.599,0.351-0.929,0.444c-3.537,1-7.08,1.985-10.831,3.031
		c0.843,2.893,1.349,5.402,2.322,7.748c1.041,2.516,0.65,4.622-0.56,7.034c-3.185,6.353-4.209,13.042-2.741,20.002
		c0.169,0.794-0.225,1.875-0.756,2.566c-0.918,1.199-2.155,2.189-3.245,3.283c-11.152,11.185-12.846,24.124-8.491,38.232
		c0.252,0.812,0.031,1.962-0.439,2.701c-1.236,1.94-2.702,3.764-4.133,5.595c-1.315,1.675-2.293,3.552-1.256,5.48
		c1.233,2.294,3.179,3.735,6.389,3.67c2.282-0.047,4.756,0.411,6.841,1.266c3.188,1.31,6.35,2.876,9.095,4.837
		c4.326,3.086,8.899,3.555,14.096,2.697c5.5-0.908,11.082-1.45,16.651-1.935c3.074-0.269,6.049,0.278,8.807,1.836
		c3.171,1.791,6.525,2.384,9.909,0.267c0.629-0.393,1.336-0.698,2.042-0.968c4.078-1.56,8.053-3.475,12.282-4.532
		c4.233-1.059,7.261-4.037,5.928-7.89c-1.862-5.385-0.385-9.957,2.165-14.785c3.33-6.3,5.814-12.945,3.901-20.161
		c-0.997-3.763-2.173-7.485-3.347-11.203c-1.224-3.884-2.304-7.795-1.627-11.86C538.407,398.47,538.775,395.931,541.102,394.261z
		 M534.371,385.643c-2.705,1.207-5.452,2.434-8.33,3.719c-2.497-4.652-6.391-7.155-11.586-8.531
		c2.724-2.223,5.735-3.702,9.406-3.742C527.757,377.044,532.543,380.894,534.371,385.643z M535.293,399.676
		c-0.03,0.265-0.062,0.529-0.094,0.793c-2.223-0.353-4.445-0.705-6.669-1.058c-0.015-0.136-0.032-0.274-0.048-0.411
		C530.754,399.224,533.023,399.451,535.293,399.676z M514.069,418.379c0.048,1.123,0.097,2.256,0.306,3.358
		c0.237,1.266-0.076,1.948-1.591,2.19c-1.58,0.252-1.842-0.484-1.91-1.615c-0.167-2.801-0.361-5.601-0.546-8.399l0.185-0.01
		c0-2.108-0.104-4.225,0.066-6.322c0.047-0.58,0.815-1.463,1.407-1.589c1.619-0.339,3.332-0.533,4.983-0.442
		c2.367,0.131,3.51,1.482,3.65,3.825c0.196,3.327-0.321,4.134-3.057,4.783C513.936,415.015,513.923,415.015,514.069,418.379z
		 M496.979,390.99c3.769-2.783,6.99-5.866,11.618-7.121c5.717-1.555,12.085,1.022,14.505,6.145
		C514.417,391.624,506.09,395.251,496.979,390.99z M519.938,359.388c2.981,1.052,5.265,3.188,5.982,6.024
		c0.657,2.599,0.523,5.381,0.565,8.084c0.008,0.485-0.747,1.292-1.299,1.423c-3.576,0.85-7.192,1.554-10.849,2.316
		c-3.026-8.276-4.582-10.03-10.448-11.845C506.536,360.979,515.152,357.698,519.938,359.388z M508.296,370.416
		c2.645,3.054,3.389,6.651,3.113,10.556c-6.57,0.743-11.438,4.042-15.738,8.194c-1.068,1.032-1.856,0.812-2.571-0.186
		c-1.174-1.646-2.328-3.307-3.352-5.034c-0.379-0.638-0.583-1.497-0.496-2.216c0.577-4.902,2.355-9.311,6.682-12.521
		C499.534,366.536,505.396,367.065,508.296,370.416z M496.149,366.08c-5.436,3.376-7.177,8.453-9.224,13.849
		c-2.16-2.462-4.065-4.635-6.132-6.991C484.788,368.876,489.094,365.53,496.149,366.08z M477.708,365.048
		c2.461-2.17,5.468-3.317,8.933-3.361c2.038-0.024,3.87,0.365,5.6,2.051c-5.231,1.44-9.271,4.098-12.542,7.896
		C474.629,368.917,475.591,366.915,477.708,365.048z M465.864,406.66c9.915-1.823,19.349-5.795,29.735-5.535
		c-10.213,2.104-20.424,4.21-31.057,6.403C465.191,407.09,465.495,406.728,465.864,406.66z M487.042,450.498
		c-1.7,0.746-3.402,0.475-5.116-0.753c0.399-0.492,0.766-0.946,1.343-1.658c0.753,1.942,1.881,2.13,3.148,1.26
		c-0.724-0.893-1.442-1.778-2.16-2.665c1.595-1.059,3.19-2.116,4.786-3.174c0.271,0.214,0.544,0.43,0.815,0.644
		c-0.294,0.901-0.589,1.802-1.012,3.099c-0.673-0.773-0.983-1.127-1.388-1.588c-0.592,0.39-1.191,0.783-2.126,1.4
		c0.742,0.226,1.157,0.287,1.495,0.468c0.671,0.363,1.298,0.791,1.942,1.191C488.203,449.331,487.762,450.182,487.042,450.498z
		 M493.997,452.689c-0.73,0.09-1.461,0.177-2.45,0.299c0.194-0.864,0.317-1.423,0.579-2.586c-1.681,0.771-2.851,1.307-4.022,1.843
		c1.362-3.096,2.493-6.113,6.525-7.627c-0.46,2.789-0.865,5.241-1.27,7.691C493.572,452.436,493.785,452.562,493.997,452.689z
		 M498.905,451.848c-1.306,0.144-2.657-0.084-3.991-0.167c0.196-0.681,0.262-1.43,0.621-2.029c0.717-1.2,2.543-2.01,0.852-4.276
		c1.63,0.381,2.452,0.572,3.45,0.805c-1.188,1.53-2.187,2.813-3.601,4.628c1.535-0.32,2.457-0.515,3.86-0.809
		C499.617,450.785,499.324,451.801,498.905,451.848z M518.093,452.244c-0.788,2.468-5.041,3.26-6.721,1.721
		c0.668-1.151,1.467-1.994,1.583-2.912c0.084-0.654-0.658-1.923-1.197-2.005c-1.064-0.167-2.246,0.303-3.379,0.508
		c0.055,0.237,0.106,0.478,0.161,0.716c0.501-0.048,0.999-0.111,1.501-0.141c0.408-0.021,0.821-0.003,1.232-0.003
		c0.076,0.232,0.154,0.465,0.229,0.697c-1.509,0.479-3.018,0.958-4.526,1.434c0.049,0.17,0.095,0.338,0.143,0.506
		c0.937-0.17,1.873-0.342,2.822-0.515c-0.096,1.175-1.377,2.123-2.7,1.715c-0.669-0.207-1.536-1.264-1.452-1.829
		c0.162-1.091,0.935-2.104,1.775-3.795c-1.607,0.591-2.941,0.717-3.552,1.393c-0.8,0.887-1.026,2.208-1.575,3.517h-2.027
		c0.942-1.591,1.764-2.979,2.762-4.666h-4.418c0.911-0.708,1.439-1.47,1.971-1.473c2.121-0.006,4.241,0.243,6.364,0.364
		c1.693,0.097,3.392,0.114,5.083,0.231c2.092,0.145,4.22,0.385,5.451,2.2C518.055,450.544,518.314,451.555,518.093,452.244z
		 M523.431,431.003c-7.493,0.365-14.997,0.851-22.438,1.713c-6.974,0.807-13.938,1.898-20.792,3.336
		c-9.179,1.929-18.128,4.557-25.57,10.246c-0.263,0.2-0.626,0.291-1.347,0.127c0.293-0.452,0.476-1.042,0.902-1.333
		c4.533-3.107,9.169-6.035,14.744-7.444c3.15-0.797,6.159-2.215,9.35-2.701c13.885-2.121,27.679-4.859,41.87-4.993
		c3.258-0.03,6.505-1.356,9.747-2.119c0.71-0.167,1.384-0.462,2.075-0.697C529.495,429.169,526.989,430.831,523.431,431.003z
		 M538.275,420.069c0.134,0.62-0.346,1.641-0.907,2.05c-5.807,4.222-12.307,6.4-19.853,6.76c-8.312,0.393-16.631,1.405-24.842,2.709
		c-7.822,1.241-15.647,2.796-23.204,4.987c-5.09,1.478-9.719,4.299-14.548,6.531c-0.594,0.274-1.145,0.626-2.106,1.158
		c-0.382-2.847-0.936-5.385-1.019-7.933c-0.281-8.573,2.059-16.406,7.924-23.272c2.503-2.93,5.649-4.573,9.515-5.354
		c10.624-2.145,21.247-4.304,31.851-6.537c3.933-0.828,5.512-0.688,11.075,1.751c-1.6,0.69-3.084,1.327-4.567,1.965
		c-3.263-2.427-5.798-2.603-11.922,3.778c0.132-1.104,0.239-1.996,0.389-3.26c-3.017,0.596-5.725,0.966-8.281,1.752
		c-0.621,0.189-0.744,1.748-1.068,2.604c-2.74-3.397-8.443-4.255-12.743-1.776c-0.383,0.221-0.745,0.717-0.812,1.125
		c-0.936,5.708-1.83,11.424-2.685,17.142c-0.062,0.431,0.123,1.03,0.438,1.343c1.238,1.233,5.868,0.105,6.492-1.511
		c0.194-0.504,0.534-0.96,0.935-1.665c0.454,0.944,0.746,1.653,1.126,2.322c0.921,1.625,2.33,1.749,3.588,0.303
		c0.944-1.089,1.819-2.229,2.794-3.432c2.003,3.115,5.624,0.588,7.865,2.746c0.36-4.296,0.68-8.099,1.024-12.195
		c1.267,1.109,2.305,2.02,3.567,3.124c-0.917,1.062-1.889,2.295-2.983,3.427c-0.979,1.014-0.856,1.818,0.183,2.69
		c1.528,1.282,3.046,2.58,4.495,3.936c0.959,0.898,1.965,1.19,2.965,0.269c2.019-1.858,3.938-3.811,5.968-5.792
		c0.09,0.887,0.147,2.003,0.327,3.101c0.2,1.237,0.734,1.799,2.343,1.33c4.586-1.337,4.607-1.265,4.037-5.804
		c-0.078-0.628-0.056-1.267-0.125-1.897c-0.163-1.538,0.584-2.01,2.223-2.496c3.448-1.023,5.543,0.978,8.11,1.988
		c-0.088,0.239-0.176,0.479-0.263,0.72c-1.118-0.411-2.238-0.818-3.572-1.309c-0.501,0.554-1.122,1.16-1.649,1.827
		c-1.09,1.382-1.335,2.65,0.553,3.723c0.771,0.437,1.394,1.095,2.075,1.665c2.202,1.834,3.279,1.8,5.291-0.269
		c0.661-0.681,1.21-1.456,1.806-2.189c2.513-3.089,3.335-5.521-1.402-7.871c-1.714-0.852-1.614-1.248-0.334-3.495
		c0.686,0.808,1.106,1.483,1.713,1.959c0.504,0.395,1.494,0.929,1.798,0.744c0.809-0.487,1.963-1.366,1.914-2.027
		c-0.179-2.507-0.783-4.989-1.218-7.483c-0.199-1.157-0.909-1.419-2.169-1.633c-4.278-0.735-6.292,1.769-8.057,4.449
		c-1.724-1.215-3.317-2.339-4.965-3.499c5.303-4.871,11.491-2.782,17.891-1.527C534.328,408.203,536.967,414.031,538.275,420.069z
		 M503.397,417.698c-1.212-1.015-2.743-1.754-4.236-2.419c-2.162-0.965-2.873-1.961-2.037-3.988
		c0.997-2.418,1.936-5.103,5.293-5.534c1.336-0.172,3.391-0.143,3.996,0.587c0.7,0.838,0.163,2.547,0.163,4.112
		c-1.27-0.649-2.039-1.35-2.852-1.392c-1.23-0.063-2.489,0.331-3.737,0.532c0.501,1.307,0.718,2.808,1.584,3.858
		c0.712,0.859,2.161,1.252,3.344,1.722c1.387,0.547,1.91,1.437,1.949,2.795c0.083,2.899-1.134,5.194-3.564,6.983
		c-1.403,1.029-2.655,1.181-3.917-0.329c-0.711-0.849-1.782-1.445-2.844-2.274c0.769-0.914,1.455-1.731,2.285-2.721
		c0.357,0.402,0.619,0.685,0.868,0.978c0.896,1.063,1.843,2.014,3.433,0.999C504.411,420.785,504.695,418.782,503.397,417.698z
		 M502.008,411.406c0.199-0.24,0.4-0.482,0.602-0.723c1.318,0.818,2.637,1.639,4.359,2.708c0.453-1.842,0.888-3.607,1.321-5.37
		c0.077-0.005,0.151-0.006,0.229-0.01v7.731C506.366,414.31,504.186,412.859,502.008,411.406z M488.847,411.832
		c-0.076-2.117,0.777-3.127,2.948-3.406c0.594-0.076,1.179-0.222,2.085-0.396c-0.712,5.217-1.398,10.246-2.098,15.367h-3.414
		c0-1.322-0.057-2.557,0.011-3.787C488.522,417.015,488.941,414.417,488.847,411.832z M481.966,418.975
		c1.075,0.882,2.264,1.648,3.637,2.633c-1.285,1.498-2.438,2.843-3.944,4.601c-1.292-2.688-2.318-4.824-3.344-6.958
		c-0.265,0.037-0.529,0.071-0.792,0.108c-0.444,1.455-0.943,2.9-1.315,4.371c-0.448,1.768-1.351,2.81-3.9,2.099
		c0.205-1.473,0.383-3.04,0.649-4.592c0.549-3.201,1.199-6.384,1.696-9.586c0.211-1.36,0.8-2.246,2.31-2.505
		c1.423-0.242,2.84-0.659,4.267-0.684c3.188-0.056,4.551,2.236,2.863,4.709c-0.648,0.949-1.37,1.911-2.274,2.64
		C480.327,417.013,480.799,418.018,481.966,418.975z M483.469,417.72c1.073-1.56,2.039-2.965,3.04-4.423v6.747
		C485.175,419.024,484.289,418.347,483.469,417.72z M527.655,415.571c1.009,0.613,1.964,1.298,3.311,2.197
		c-1.495,1.856-2.786,3.743-4.392,5.366c-1.382,1.401-3.071,0.935-4.717-1.002c-0.833-0.983-0.644-1.412,1.373-2.883
		c0.424,0.303,0.714,0.523,1.018,0.727c1.455,0.969,2.429,0.333,3.17-0.855c0.761-1.222,0.17-1.884-1.112-2.438
		c-4.438-1.918-4.598-2.129-2.917-6.343c0.957-2.397,1.885-4.987,4.998-5.917c2.222-0.663,2.953-0.225,3.188,1.89
		c0.14,1.259,0.339,2.52,0.356,3.778c0.01,0.569-0.363,1.146-0.752,2.26c-0.938-1.34-1.44-2.188-2.072-2.94
		c-1.248-1.481-2.326-1.351-3.208,0.33C524.448,412.505,524.881,413.889,527.655,415.571z"/>
	<path fill-rule="evenodd" clip-rule="evenodd" fill="#FFFFFF" d="M528.347,410.837c0.686,0.808,1.106,1.483,1.713,1.959
		c0.504,0.395,1.494,0.929,1.798,0.744c0.809-0.487,1.963-1.366,1.914-2.027c-0.179-2.507-0.783-4.989-1.218-7.483
		c-0.199-1.157-0.909-1.419-2.169-1.633c-4.278-0.735-6.292,1.769-8.057,4.449c-1.724-1.215-3.317-2.339-4.965-3.499
		c5.303-4.871,11.491-2.782,17.891-1.527c-0.926,6.384,1.713,12.212,3.021,18.25c0.134,0.62-0.346,1.641-0.907,2.05
		c-5.807,4.222-12.307,6.4-19.853,6.76c-8.312,0.393-16.631,1.405-24.842,2.709c-7.822,1.241-15.647,2.796-23.204,4.987
		c-5.09,1.478-9.719,4.299-14.548,6.531c-0.594,0.274-1.145,0.626-2.106,1.158c-0.382-2.847-0.936-5.385-1.019-7.933
		c-0.281-8.573,2.059-16.406,7.924-23.272c2.503-2.93,5.649-4.573,9.515-5.354c10.624-2.145,21.247-4.304,31.851-6.537
		c3.933-0.828,5.512-0.688,11.075,1.751c-1.6,0.69-3.084,1.327-4.568,1.967c-3.262-2.429-5.797-2.604-11.921,3.776
		c0.132-1.104,0.239-1.996,0.389-3.26c-3.017,0.596-5.725,0.966-8.281,1.752c-0.621,0.189-0.744,1.748-1.068,2.604
		c-2.74-3.397-8.443-4.255-12.743-1.776c-0.383,0.221-0.745,0.717-0.812,1.125c-0.936,5.708-1.83,11.424-2.685,17.142
		c-0.062,0.431,0.123,1.03,0.438,1.343c1.238,1.233,5.868,0.105,6.492-1.511c0.194-0.504,0.534-0.96,0.935-1.665
		c0.454,0.944,0.746,1.653,1.126,2.322c0.921,1.625,2.33,1.749,3.588,0.303c0.944-1.089,1.819-2.229,2.794-3.432
		c2.003,3.115,5.624,0.588,7.865,2.746c0.36-4.296,0.68-8.099,1.024-12.195c1.267,1.109,2.305,2.02,3.567,3.124
		c-0.917,1.062-1.889,2.295-2.983,3.427c-0.979,1.014-0.856,1.818,0.183,2.69c1.528,1.282,3.046,2.58,4.495,3.936
		c0.959,0.898,1.965,1.19,2.965,0.269c2.019-1.858,3.938-3.811,5.968-5.792c0.09,0.887,0.147,2.003,0.327,3.101
		c0.2,1.237,0.734,1.799,2.343,1.33c4.586-1.337,4.607-1.265,4.037-5.804c-0.078-0.628-0.056-1.267-0.125-1.897
		c-0.163-1.538,0.584-2.01,2.223-2.496c3.448-1.023,5.543,0.978,8.11,1.988c-0.088,0.239-0.176,0.479-0.263,0.72
		c-1.118-0.411-2.238-0.818-3.572-1.309c-0.501,0.554-1.122,1.16-1.649,1.827c-1.09,1.382-1.335,2.65,0.553,3.723
		c0.771,0.437,1.394,1.095,2.075,1.665c2.202,1.834,3.279,1.8,5.291-0.269c0.661-0.681,1.21-1.456,1.806-2.189
		c2.513-3.089,3.335-5.521-1.402-7.871C526.967,413.48,527.066,413.084,528.347,410.837z M464.707,422.119
		c-0.23-3.692,1.254-5.467,4.726-6.003c1.25-0.189,1.717-0.637,1.804-1.699c0.11-1.331,0.291-2.656,0.436-3.984
		c0.156-1.438-0.653-2.031-2.063-1.645c-2.959,0.812-5.885,1.473-7.88,4.156c-4.117,5.537-4.514,12.421-0.576,16.2
		c1.959,1.878,5.78,2.28,7.245,0.063c1.955-2.953,1.592-6.371,2.083-10.045C468.343,420.257,466.692,421.104,464.707,422.119z
		 M455.687,426.606c-2.065,4.608-1.507,9.257-1.114,14.142c3.339-1.627,6.214-3.024,9.355-4.553
		C458.985,434.632,457.306,430.732,455.687,426.606z M537.425,419.398c-1.199-1.6-2.049-2.735-3.063-4.089
		c-1.072,2.285-1.959,4.064-2.725,5.887c-0.207,0.488-0.04,1.107-0.045,1.667c0.629-0.093,1.41,0.002,1.861-0.308
		C534.792,421.633,536.001,420.551,537.425,419.398z"/>
	<path fill-rule="evenodd" clip-rule="evenodd" fill="#F9D467" d="M511.409,380.972c-6.57,0.743-11.438,4.042-15.738,8.194
		c-1.068,1.032-1.856,0.812-2.571-0.186c-1.174-1.646-2.328-3.307-3.352-5.034c-0.379-0.638-0.583-1.497-0.496-2.216
		c0.577-4.902,2.355-9.311,6.682-12.521c3.601-2.673,9.463-2.144,12.362,1.207C510.94,373.47,511.685,377.067,511.409,380.972z"/>
	<path fill-rule="evenodd" clip-rule="evenodd" fill="#F9D467" d="M503.891,365.39c2.646-4.412,11.262-7.692,16.048-6.002
		c2.981,1.052,5.265,3.188,5.982,6.024c0.657,2.599,0.523,5.381,0.565,8.084c0.008,0.485-0.747,1.292-1.299,1.423
		c-3.576,0.85-7.192,1.554-10.849,2.316C511.312,368.959,509.757,367.205,503.891,365.39z"/>
	<path fill-rule="evenodd" clip-rule="evenodd" fill="#F9D467" d="M523.102,390.014c-8.685,1.61-17.012,5.237-26.123,0.977
		c3.769-2.783,6.99-5.866,11.618-7.121C514.313,382.314,520.682,384.892,523.102,390.014z"/>
	<path fill-rule="evenodd" clip-rule="evenodd" fill="#FFFFFF" d="M485.603,421.607c-1.285,1.498-2.438,2.843-3.944,4.601
		c-1.292-2.688-2.318-4.824-3.344-6.958c-0.265,0.037-0.529,0.071-0.792,0.108c-0.444,1.455-0.943,2.9-1.315,4.371
		c-0.448,1.768-1.351,2.81-3.9,2.099c0.205-1.473,0.383-3.04,0.649-4.592c0.549-3.201,1.199-6.384,1.696-9.586
		c0.211-1.36,0.8-2.246,2.31-2.505c1.423-0.242,2.84-0.659,4.267-0.684c3.188-0.056,4.551,2.236,2.863,4.709
		c-0.648,0.949-1.37,1.911-2.274,2.64c-1.49,1.202-1.019,2.207,0.148,3.164C483.041,419.856,484.229,420.623,485.603,421.607z
		 M478.41,415.778c1.275-1.15,2.555-1.879,3.077-2.926c0.327-0.655-0.342-1.868-0.865-2.662c-0.168-0.255-1.817-0.143-1.912,0.094
		C478.078,411.868,477.153,413.503,478.41,415.778z"/>
	<path fill-rule="evenodd" clip-rule="evenodd" fill="#F9D467" d="M526.041,389.361c-2.497-4.652-6.391-7.155-11.586-8.531
		c2.724-2.223,5.735-3.702,9.406-3.742c3.896-0.044,8.682,3.805,10.51,8.554C531.666,386.85,528.919,388.076,526.041,389.361z"/>
	<path fill-rule="evenodd" clip-rule="evenodd" fill="#F9D467" d="M535.221,383.646c-1.739-3.82-4.702-6.001-8.76-7.35
		c2.282-1.634,4.756-2.66,7.676-2.513c3.099,0.154,6.701,3.449,7.902,7.314C539.825,381.927,537.577,382.767,535.221,383.646z"/>
	<path fill-rule="evenodd" clip-rule="evenodd" fill="#FFFFFF" d="M531.972,427.137c-2.477,2.032-4.982,3.694-8.541,3.866
		c-7.493,0.365-14.997,0.851-22.438,1.713c-6.974,0.807-13.938,1.898-20.792,3.336c-9.179,1.929-18.128,4.557-25.57,10.246
		c-0.263,0.2-0.626,0.291-1.347,0.127c0.293-0.452,0.476-1.042,0.902-1.333c4.533-3.107,9.169-6.035,14.744-7.444
		c3.15-0.797,6.159-2.215,9.35-2.701c13.885-2.121,27.679-4.859,41.87-4.993c3.258-0.03,6.505-1.356,9.747-2.119
		C530.606,427.667,531.28,427.372,531.972,427.137z"/>
	<path fill-rule="evenodd" clip-rule="evenodd" fill="#FFFFFF" d="M506.576,410.456c-1.27-0.649-2.039-1.35-2.852-1.392
		c-1.23-0.063-2.489,0.331-3.737,0.532c0.501,1.307,0.718,2.808,1.584,3.858c0.712,0.859,2.161,1.252,3.344,1.722
		c1.387,0.547,1.91,1.437,1.949,2.795c0.083,2.899-1.134,5.194-3.564,6.983c-1.403,1.029-2.655,1.181-3.917-0.329
		c-0.711-0.849-1.782-1.445-2.844-2.274c0.769-0.914,1.455-1.731,2.285-2.721c0.357,0.402,0.619,0.685,0.868,0.978
		c0.896,1.063,1.843,2.014,3.433,0.999c1.286-0.822,1.57-2.825,0.272-3.909c-1.212-1.015-2.743-1.754-4.236-2.419
		c-2.162-0.965-2.873-1.961-2.037-3.988c0.997-2.418,1.936-5.103,5.293-5.534c1.336-0.172,3.391-0.143,3.996,0.587
		C507.113,407.182,506.576,408.891,506.576,410.456z"/>
	<path fill-rule="evenodd" clip-rule="evenodd" fill="#FFFFFF" d="M510.513,413.903c0-2.108-0.104-4.225,0.066-6.322
		c0.047-0.58,0.815-1.463,1.407-1.589c1.619-0.339,3.332-0.533,4.983-0.442c2.367,0.131,3.51,1.482,3.65,3.825
		c0.196,3.327-0.321,4.134-3.057,4.783c-3.628,0.856-3.641,0.856-3.494,4.221c0.048,1.123,0.097,2.256,0.306,3.358
		c0.237,1.266-0.076,1.948-1.591,2.19c-1.58,0.252-1.842-0.484-1.91-1.615c-0.167-2.801-0.361-5.601-0.546-8.399
		C510.391,413.909,510.451,413.906,510.513,413.903z M514.871,406.427c-0.693,0.481-1.349,0.748-1.327,0.951
		c0.179,1.652,0.45,3.297,0.814,4.923c0.033,0.149,1.184,0.353,1.359,0.167c0.938-0.993,2.574-2.279,2.363-3.128
		C517.801,408.215,516.036,407.403,514.871,406.427z"/>
	<path fill-rule="evenodd" clip-rule="evenodd" fill="#FFFFFF" d="M523.23,419.25c0.424,0.303,0.714,0.523,1.018,0.727
		c1.455,0.969,2.429,0.333,3.17-0.855c0.761-1.222,0.17-1.884-1.112-2.438c-4.438-1.918-4.598-2.129-2.917-6.343
		c0.957-2.397,1.885-4.987,4.998-5.917c2.222-0.663,2.953-0.225,3.188,1.89c0.14,1.259,0.339,2.52,0.356,3.778
		c0.01,0.569-0.363,1.146-0.752,2.26c-0.938-1.34-1.44-2.188-2.072-2.94c-1.248-1.481-2.326-1.351-3.208,0.33
		c-1.451,2.764-1.019,4.147,1.756,5.83c1.009,0.613,1.964,1.298,3.311,2.197c-1.495,1.856-2.786,3.743-4.392,5.366
		c-1.382,1.401-3.071,0.935-4.717-1.002C521.024,421.149,521.214,420.721,523.23,419.25z"/>
	<path fill-rule="evenodd" clip-rule="evenodd" fill="#F9D467" d="M486.926,379.929c-2.16-2.462-4.065-4.635-6.132-6.991
		c3.994-4.062,8.3-7.408,15.355-6.858C490.714,369.456,488.973,374.532,486.926,379.929z"/>
	<path fill-rule="evenodd" clip-rule="evenodd" fill="#F9D467" d="M528.115,365.692c1.465,0.385,2.756,0.723,4.156,1.09
		c-0.395,2.508-1.096,4.825-3.865,6.375C529.518,370.546,528.805,368.219,528.115,365.692z"/>
	<path fill-rule="evenodd" clip-rule="evenodd" fill="#F9D467" d="M479.698,371.635c-5.069-2.717-4.107-4.72-1.99-6.587
		c2.461-2.17,5.468-3.317,8.933-3.361c2.038-0.024,3.87,0.365,5.6,2.051C487.009,365.179,482.97,367.836,479.698,371.635z"/>
	<path fill-rule="evenodd" clip-rule="evenodd" fill="#FFFFFF" d="M511.372,453.965c0.668-1.151,1.467-1.994,1.583-2.912
		c0.084-0.654-0.658-1.923-1.197-2.005c-1.064-0.167-2.246,0.303-3.379,0.508c0.055,0.237,0.106,0.478,0.161,0.716
		c0.501-0.048,0.999-0.111,1.501-0.141c0.408-0.021,0.821-0.003,1.232-0.003c0.076,0.232,0.154,0.465,0.229,0.697
		c-1.509,0.479-3.018,0.958-4.526,1.434c0.049,0.17,0.095,0.338,0.143,0.506c0.937-0.17,1.873-0.342,2.822-0.515
		c-0.096,1.175-1.377,2.123-2.7,1.715c-0.669-0.207-1.536-1.264-1.452-1.829c0.162-1.091,0.935-2.104,1.775-3.795
		c-1.607,0.591-2.941,0.717-3.552,1.393c-0.8,0.887-1.026,2.208-1.575,3.517c-0.432,0-1.137,0-2.027,0
		c0.942-1.591,1.764-2.979,2.762-4.666c-1.429,0-2.57,0-4.418,0c0.911-0.708,1.439-1.47,1.971-1.473
		c2.121-0.006,4.241,0.243,6.364,0.364c1.693,0.097,3.392,0.114,5.083,0.231c2.092,0.145,4.22,0.385,5.451,2.2
		c0.432,0.637,0.691,1.647,0.47,2.337C517.305,454.712,513.052,455.504,511.372,453.965z M515.22,448.897
		c-0.67,1.883-1.114,3.138-1.561,4.389c0.244,0.161,0.487,0.324,0.729,0.485c0.943-0.878,1.997-1.685,2.729-2.688
		C517.259,450.891,516.127,449.918,515.22,448.897z"/>
	<path fill-rule="evenodd" clip-rule="evenodd" fill="#FFFFFF" d="M493.88,408.03c-0.712,5.217-1.398,10.246-2.098,15.367
		c-1.083,0-2.118,0-3.414,0c0-1.322-0.057-2.557,0.011-3.787c0.144-2.596,0.562-5.193,0.468-7.778
		c-0.076-2.117,0.777-3.127,2.948-3.406C492.389,408.35,492.974,408.204,493.88,408.03z"/>
	<path fill-rule="evenodd" clip-rule="evenodd" fill="#FFFFFF" d="M495.6,401.125c-10.213,2.104-20.424,4.21-31.057,6.403
		c0.648-0.438,0.952-0.801,1.321-0.868C475.779,404.837,485.213,400.865,495.6,401.125z"/>
	<path fill-rule="evenodd" clip-rule="evenodd" fill="#FFFFFF" d="M494.629,444.618c-0.46,2.789-0.865,5.241-1.27,7.691
		c0.213,0.126,0.426,0.253,0.638,0.38c-0.73,0.09-1.461,0.177-2.45,0.299c0.194-0.864,0.317-1.423,0.579-2.586
		c-1.681,0.771-2.851,1.307-4.022,1.843C489.466,449.149,490.597,446.132,494.629,444.618z"/>
	<path fill-rule="evenodd" clip-rule="evenodd" fill="#FFFFFF" d="M489.858,444.151c-0.294,0.901-0.589,1.802-1.012,3.099
		c-0.673-0.773-0.983-1.127-1.388-1.588c-0.592,0.39-1.191,0.783-2.126,1.4c0.742,0.226,1.157,0.287,1.495,0.468
		c0.671,0.363,1.298,0.791,1.942,1.191c-0.567,0.609-1.009,1.46-1.729,1.776c-1.7,0.746-3.402,0.475-5.116-0.753
		c0.399-0.492,0.766-0.946,1.343-1.658c0.753,1.942,1.881,2.13,3.148,1.26c-0.724-0.893-1.442-1.778-2.16-2.665
		c1.595-1.059,3.19-2.116,4.786-3.174C489.314,443.722,489.587,443.938,489.858,444.151z"/>
	<path fill-rule="evenodd" clip-rule="evenodd" fill="#FFFFFF" d="M496.387,445.375c1.63,0.381,2.452,0.572,3.45,0.805
		c-1.188,1.53-2.187,2.813-3.601,4.628c1.535-0.32,2.457-0.515,3.86-0.809c-0.479,0.786-0.772,1.802-1.191,1.849
		c-1.306,0.144-2.657-0.084-3.991-0.167c0.196-0.681,0.262-1.43,0.621-2.029C496.252,448.451,498.078,447.642,496.387,445.375z"/>
	<path fill-rule="evenodd" clip-rule="evenodd" fill="#FFFFFF" d="M502.609,410.684c1.318,0.818,2.637,1.639,4.359,2.708
		c0.453-1.842,0.888-3.607,1.321-5.37c0.077-0.005,0.151-0.006,0.229-0.01c0,2.617,0,5.237,0,7.731
		c-2.152-1.434-4.333-2.884-6.511-4.337C502.207,411.166,502.408,410.924,502.609,410.684z"/>
	<path fill-rule="evenodd" clip-rule="evenodd" fill="#FFFFFF" d="M486.509,413.297c0,2.045,0,4.109,0,6.747
		c-1.334-1.02-2.22-1.697-3.04-2.324C484.542,416.16,485.508,414.755,486.509,413.297z"/>
	<path fill-rule="evenodd" clip-rule="evenodd" fill="#FFFFFF" d="M528.482,399c2.271,0.224,4.541,0.451,6.811,0.676
		c-0.03,0.265-0.062,0.529-0.094,0.793c-2.223-0.353-4.445-0.705-6.669-1.058C528.516,399.275,528.498,399.137,528.482,399z"/>
	<path fill-rule="evenodd" clip-rule="evenodd" fill="#68C7BC" d="M464.707,422.119c1.985-1.016,3.636-1.862,5.773-2.956
		c-0.491,3.674-0.128,7.092-2.083,10.045c-1.465,2.217-5.286,1.814-7.245-0.063c-3.938-3.779-3.541-10.663,0.576-16.2
		c1.995-2.684,4.921-3.345,7.88-4.156c1.41-0.387,2.22,0.207,2.063,1.645c-0.145,1.328-0.325,2.653-0.436,3.984
		c-0.087,1.062-0.554,1.51-1.804,1.699C465.961,416.652,464.477,418.427,464.707,422.119z M468.4,422.021
		c-0.857,0.423-1.186,0.717-1.521,0.724c-1.209,0.032-2.758,0.363-3.521-0.187c-0.621-0.446-0.783-2.26-0.301-3.005
		c1.127-1.75,2.437-3.884,4.272-4.648c2.671-1.113,2.595-2.635,2.391-4.784c-0.842,0.29-1.522,0.675-2.245,0.751
		c-5.124,0.539-9.015,11.95-6.415,15.255c0.492,0.627,0.959,1.288,1.555,1.823c1.799,1.609,4.369,1.034,5.008-1.183
		C468.026,425.363,468.107,423.884,468.4,422.021z"/>
	<path fill-rule="evenodd" clip-rule="evenodd" fill="#68C7BC" d="M455.687,426.606c1.619,4.126,3.299,8.025,8.241,9.589
		c-3.142,1.528-6.017,2.926-9.355,4.553C454.18,435.863,453.621,431.215,455.687,426.606z"/>
	<path fill-rule="evenodd" clip-rule="evenodd" fill="#68C7BC" d="M537.425,419.398c-1.424,1.152-2.633,2.234-3.972,3.157
		c-0.451,0.31-1.232,0.215-1.861,0.308c0.005-0.56-0.162-1.179,0.045-1.667c0.766-1.822,1.652-3.602,2.725-5.887
		C535.376,416.663,536.226,417.799,537.425,419.398z"/>
	<path fill-rule="evenodd" clip-rule="evenodd" fill="#68C7BC" d="M478.41,415.778c-1.257-2.275-0.332-3.91,0.3-5.494
		c0.095-0.236,1.744-0.349,1.912-0.094c0.523,0.794,1.192,2.007,0.865,2.662C480.965,413.899,479.686,414.628,478.41,415.778z"/>
	<path fill-rule="evenodd" clip-rule="evenodd" fill="#68C7BC" d="M514.871,406.427c1.165,0.977,2.93,1.788,3.21,2.913
		c0.211,0.849-1.426,2.135-2.363,3.128c-0.176,0.186-1.326-0.018-1.359-0.167c-0.364-1.626-0.636-3.271-0.814-4.923
		C513.522,407.175,514.178,406.908,514.871,406.427z M517.498,409.155c-1.072-0.431-1.784-0.72-2.96-1.192
		c0.176,1.32,0.3,2.238,0.421,3.154c0.198,0.044,0.396,0.085,0.596,0.129C516.134,410.622,516.713,410,517.498,409.155z"/>
	<path fill-rule="evenodd" clip-rule="evenodd" fill="#68C7BC" d="M515.22,448.897c0.907,1.021,2.039,1.993,1.897,2.186
		c-0.731,1.004-1.785,1.811-2.729,2.688c-0.242-0.161-0.485-0.324-0.729-0.485C514.105,452.035,514.55,450.78,515.22,448.897z"/>
	<path fill-rule="evenodd" clip-rule="evenodd" fill="#FFFFFF" d="M468.4,422.021c-0.293,1.863-0.374,3.343-0.776,4.746
		c-0.639,2.217-3.209,2.792-5.008,1.183c-0.596-0.535-1.062-1.196-1.555-1.823c-2.6-3.305,1.291-14.716,6.415-15.255
		c0.723-0.076,1.403-0.461,2.245-0.751c0.204,2.149,0.28,3.671-2.391,4.784c-1.836,0.765-3.146,2.898-4.272,4.648
		c-0.482,0.745-0.32,2.559,0.301,3.005c0.763,0.55,2.312,0.219,3.521,0.187C467.215,422.737,467.543,422.443,468.4,422.021z"/>
	<path fill-rule="evenodd" clip-rule="evenodd" fill="#68C7BC" d="M517.498,409.155c-0.785,0.845-1.364,1.467-1.943,2.091
		c-0.199-0.044-0.397-0.085-0.596-0.129c-0.121-0.916-0.245-1.834-0.421-3.154C515.714,408.436,516.426,408.725,517.498,409.155z"/>
</g>
<circle fill-rule="evenodd" clip-rule="evenodd" fill="#FFFFFF" cx="400.529" cy="411.798" r="10.5"/>
<circle fill-rule="evenodd" clip-rule="evenodd" fill="#FFFFFF" cx="333.929" cy="412.5" r="10.5"/>
<g>
	<path fill-rule="evenodd" clip-rule="evenodd" fill="#FFE300" d="M-121.16,110.306c0.023-0.344,0.097-0.671,0.229-0.981
		c0.045-1.139-0.005-2.258-0.298-3.305c-0.096-0.341-0.23-0.65-0.376-0.945c-5.145-1.882-10.342-3.641-15.592-5.266
		c-1.071,0.032-2.148,0.091-3.243,0.136c-0.302,0.185-0.606,0.361-0.918,0.514c-13.894,6.776-27.94,13.159-42.045,19.344
		c-10.508,4.612-21.335,1.391-27.614-7.617c-6.076-8.713-6.568-26.105-0.988-34.833c5.647-8.829,16.637-12.382,27.694-7.838
		c12.942,5.319,25.568,11.604,38.409,17.238c1.303,0.573,2.642,1.052,4.118,1.525c0.659,0.003,1.319-0.015,1.98-0.034
		c2.438-0.356,4.719-0.945,6.983-1.678c3.051-1.216,6.028-2.603,8.935-4.136c0.253-0.191,0.505-0.38,0.744-0.576
		c1.641-1.356,2.846-2.951,3.847-4.659c-0.022-0.084-0.033-0.172-0.058-0.255c-0.224-0.421-0.47-0.838-0.714-1.258
		C-138.488,59.535-159,47.041-180.63,36.948c-12.769-5.956-26.38-5.473-37.736,3.924c-15.545,12.863-29.737,11.93-45.569,0.98
		c-19.308-13.349-39.399-25.264-59.328-37.427c-11.282-6.885-17.21-5.891-25.737,4.071c4.481,3.698,8.256,7.192,12.341,10.138
		c30.414,21.928,60.886,43.744,91.344,65.591c9.265,6.647,8.88,13.599-0.736,20.211c-30.101,20.705-59.962,41.867-90.235,62.236
		c-8.193,5.518-9.028,11.346-3.703,21.629c5.917-2.293,12.346-3.767,17.897-7.126c20.639-12.485,41.036-25.498,61.429-38.508
		c14.179-9.045,27.541-8.195,40.511,2.828c8.792,7.477,18.812,10.872,29.67,8.243c6.673-1.615,13.652-3.76,19.428-7.693
		c16.81-11.454,33.457-23.245,49.777-35.572C-121.237,110.42-121.202,110.362-121.16,110.306z"/>
</g>
<ellipse fill-rule="evenodd" clip-rule="evenodd" fill="none" stroke="#000000" stroke-miterlimit="10" cx="152.953" cy="211.062" rx="8.807" ry="8.818"/>
<ellipse fill-rule="evenodd" clip-rule="evenodd" cx="152.953" cy="211.063" rx="5.181" ry="5.122"/>
<g>
	<g>
		<polygon fill-rule="evenodd" clip-rule="evenodd" fill="#2A7CC0" points="872.47,147.773 872.47,147.773 876.648,36.105 
			888.955,37.25 		"/>
		<polygon fill-rule="evenodd" clip-rule="evenodd" fill="#2A7CC0" points="872.54,147.014 872.54,147.014 901.256,39.159 
			912.951,43.253 		"/>
		<polygon fill-rule="evenodd" clip-rule="evenodd" fill="#2A7CC0" points="870.483,147.348 870.483,147.348 924.017,50.222 
			934.335,57.261 		"/>
		<polygon fill-rule="evenodd" clip-rule="evenodd" fill="#2A7CC0" points="871.819,145.665 871.819,145.665 943.902,62.641 
			952.521,71.846 		"/>
		<polygon fill-rule="evenodd" clip-rule="evenodd" fill="#2A7CC0" points="872.341,145.128 872.341,145.128 960.662,81.635 
			966.997,92.694 		"/>
		<polygon fill-rule="evenodd" clip-rule="evenodd" fill="#2A7CC0" points="870.578,143.993 870.578,143.993 971.08,105.537 
			974.554,117.929 		"/>
		<polygon fill-rule="evenodd" clip-rule="evenodd" fill="#2A7CC0" points="877.064,143.322 877.064,143.322 771.947,125.034 
			774.778,112.407 		"/>
		<polygon fill-rule="evenodd" clip-rule="evenodd" fill="#2A7CC0" points="876.356,143.155 876.356,143.155 778.333,99.882 
			783.87,88.258 		"/>
		<polygon fill-rule="evenodd" clip-rule="evenodd" fill="#2A7CC0" points="876.378,145.331 876.378,145.331 792.038,77.648 
			800.167,67.821 		"/>
		<polygon fill-rule="evenodd" clip-rule="evenodd" fill="#2A7CC0" points="874.976,143.734 874.976,143.734 806.618,58.566 
			816.556,50.774 		"/>
		<polygon fill-rule="evenodd" clip-rule="evenodd" fill="#2A7CC0" points="874.542,143.125 874.542,143.125 826.979,43.549 
			838.348,38.357 		"/>
		<polygon fill-rule="evenodd" clip-rule="evenodd" fill="#2A7CC0" points="873.216,144.813 873.216,144.813 851.085,35.726 
			863.31,33.668 		"/>
		<polygon fill-rule="evenodd" clip-rule="evenodd" fill="#2A7CC0" points="874.753,135.757 874.753,135.757 870.347,247.421 
			858.042,246.249 		"/>
		<polygon fill-rule="evenodd" clip-rule="evenodd" fill="#2A7CC0" points="874.683,136.518 874.683,136.518 845.747,244.312 
			834.058,240.191 		"/>
		<polygon fill-rule="evenodd" clip-rule="evenodd" fill="#2A7CC0" points="876.739,136.189 876.739,136.189 823.009,233.197 
			812.704,226.134 		"/>
		<polygon fill-rule="evenodd" clip-rule="evenodd" fill="#2A7CC0" points="875.398,137.868 875.398,137.868 803.148,220.733 
			794.549,211.507 		"/>
		<polygon fill-rule="evenodd" clip-rule="evenodd" fill="#2A7CC0" points="874.876,138.404 874.876,138.404 786.429,201.701 
			780.116,190.625 		"/>
		<polygon fill-rule="evenodd" clip-rule="evenodd" fill="#2A7CC0" points="876.638,139.544 876.638,139.544 776.06,177.773 
			772.61,165.374 		"/>
		<polygon fill-rule="evenodd" clip-rule="evenodd" fill="#2A7CC0" points="870.149,140.198 870.149,140.198 975.226,158.724 
			972.37,171.346 		"/>
		<polygon fill-rule="evenodd" clip-rule="evenodd" fill="#2A7CC0" points="870.858,140.369 870.858,140.369 968.791,183.859 
			963.23,195.474 		"/>
		<polygon fill-rule="evenodd" clip-rule="evenodd" fill="#2A7CC0" points="870.841,138.193 870.841,138.193 955.041,206.065 
			946.891,215.875 		"/>
		<polygon fill-rule="evenodd" clip-rule="evenodd" fill="#2A7CC0" points="872.239,139.792 872.239,139.792 940.421,225.115 
			930.468,232.885 		"/>
		<polygon fill-rule="evenodd" clip-rule="evenodd" fill="#2A7CC0" points="872.673,140.401 872.673,140.401 920.03,240.088 
			908.65,245.256 		"/>
		<polygon fill-rule="evenodd" clip-rule="evenodd" fill="#2A7CC0" points="874.003,138.717 874.003,138.717 895.908,247.857 
			883.68,249.888 		"/>
	</g>
	
		<ellipse transform="matrix(-0.995 0.1 -0.1 -0.995 1756.9464 197.6494)" fill-rule="evenodd" clip-rule="evenodd" fill="none" stroke="#000000" stroke-width="9" stroke-miterlimit="10" cx="873.522" cy="142.837" rx="100.625" ry="105.626"/>
	<g>
		<path fill-rule="evenodd" clip-rule="evenodd" fill="#FFE300" d="M838.753,198.343c-4.496-4.245-4.975-7.241-1.967-13.009
			c5.312-10.188,10.514-20.457,16.359-30.34c4.795-8.104,5.129-15.301-0.703-23.08c-4.26-5.682-4.555-12.575-1.971-19.088
			c5.283-13.314,12.107-25.85,21.531-36.71c0.994-1.146,6.113-0.867,7.002,0.39c7.049,9.972,13.682,20.251,20.105,30.645
			c1.789,2.896,2.787,6.415,3.547,9.784c1.236,5.481-0.221,10.584-3.506,15.094c-4.846,6.655-5.146,13.431-1.027,20.546
			c5.926,10.233,11.852,20.469,17.545,30.831c1.533,2.787,2.227,6.033,3.285,9.014c-4.559,2.775-7.166,2.396-9.676-1.713
			c-9.268-15.184-18.887-30.152-28.303-45.246c-3.008-4.822-6.113-4.965-9.025-0.221c-9.574,15.597-19.135,31.199-28.744,46.773
			C841.915,194.105,840.378,196.045,838.753,198.343z M874.558,87.199c-0.961,3.631-1.332,5.71-2.059,7.657
			c-2.439,6.549-5.172,12.993-7.471,19.589c-1.963,5.636-0.314,11.178,3.66,13.972c3.928,2.761,11.688,2.38,15.541-0.763
			c3.984-3.25,5.359-8.76,3.24-14.048c-2.844-7.1-5.773-14.168-8.879-21.155C877.817,90.709,876.229,89.329,874.558,87.199z"/>
	</g>
	<g id="ylY6gO_2_">
		<g>
			<path fill-rule="evenodd" clip-rule="evenodd" d="M863.894,247.386c-5.059,0-9.633,0-14.324,0
				c-0.172-1.291-0.484-2.279-0.406-3.236c0.83-10.173-4.562-16.197-13.236-20.1c-1.973-0.888-3.854-1.982-5.844-2.822
				c-4.361-1.84-6.416-5.172-7.736-9.68c-3.477-11.882-5.291-23.959-5.939-36.291c-0.197-3.751-1.322-7.452-2.023-11.177
				c0.479-0.293,0.959-0.588,1.438-0.881c1.822,2.801,4.23,5.389,5.338,8.449c2.031,5.611,3.611,11.438,4.801,17.291
				c1.762,8.674,7.707,13.985,14.295,19.046c-2.672-7.861-9.506-14.175-7.775-24.09c1.549,1.474,3.203,2.852,4.631,4.436
				c7.418,8.237,14.988,16.353,22.037,24.896c2.307,2.795,4.229,6.66,4.537,10.193C864.36,231.173,863.894,239.024,863.894,247.386z
				"/>
			<path fill-rule="evenodd" clip-rule="evenodd" d="M921.44,185.035c0.014,8.785-6.188,15.179-9.23,22.903
				c6.178-4.446,11.783-9.306,13.873-17.062c1.643-6.104,2.957-12.321,5.008-18.284c1.156-3.355,3.51-6.299,5.324-9.428
				c0.561,0.273,1.123,0.549,1.684,0.822c-0.699,3.827-1.861,7.636-2.014,11.484c-0.494,12.369-2.566,24.408-5.967,36.305
				c-1.244,4.354-3.248,7.553-7.395,9.362c-1.525,0.665-2.994,1.466-4.52,2.129c-9.467,4.119-15.971,10.242-14.846,21.644
				c0.076,0.768-0.316,1.582-0.521,2.512c-4.725,0-9.307,0-13.793,0c0-8.953-0.398-17.584,0.221-26.141
				c0.213-2.949,2.559-6.062,4.637-8.498c6.66-7.805,13.648-15.328,20.514-22.958c1.783-1.983,3.578-3.956,5.369-5.933
				C920.337,184.273,920.888,184.654,921.44,185.035z"/>
		</g>
	</g>
	
		<ellipse fill-rule="evenodd" clip-rule="evenodd" fill="none" stroke="#FFFFFF" stroke-miterlimit="10" cx="876.398" cy="136.519" rx="3.476" ry="3.31"/>
</g>
<g>
	<g>
		<path fill-rule="evenodd" clip-rule="evenodd" fill="#FFE300" d="M-101.852,308.028c0.023-0.332,0.097-0.65,0.229-0.951
			c0.045-1.102-0.005-2.186-0.299-3.2c-0.096-0.33-0.229-0.629-0.377-0.915c-5.153-1.822-10.358-3.525-15.617-5.1
			c-1.072,0.031-2.152,0.088-3.249,0.133c-0.303,0.179-0.607,0.35-0.919,0.497c-13.916,6.562-27.985,12.743-42.114,18.732
			c-10.524,4.466-21.369,1.347-27.658-7.378c-6.085-8.438-6.579-25.279-0.99-33.73c5.656-8.551,16.664-11.99,27.739-7.59
			c12.963,5.15,25.609,11.236,38.471,16.691c1.305,0.557,2.646,1.02,4.125,1.479c0.66,0.002,1.321-0.014,1.983-0.033
			c2.441-0.346,4.727-0.915,6.994-1.625c3.056-1.178,6.038-2.52,8.949-4.006c0.253-0.184,0.506-0.367,0.745-0.557
			c1.644-1.314,2.851-2.857,3.853-4.512c-0.021-0.082-0.033-0.166-0.058-0.247c-0.224-0.407-0.471-0.812-0.715-1.218
			c-18.448-15.637-38.994-27.737-60.659-37.51c-12.79-5.767-26.422-5.299-37.797,3.8c-15.57,12.457-29.785,11.552-45.642,0.95
			c-19.339-12.927-39.463-24.465-59.423-36.243c-11.3-6.668-17.238-5.705-25.779,3.942c4.488,3.582,8.27,6.964,12.361,9.817
			c30.463,21.233,60.984,42.36,91.492,63.517c9.28,6.437,8.894,13.168-0.737,19.572c-30.15,20.05-60.059,40.543-90.381,60.269
			c-8.206,5.343-9.043,10.986-3.709,20.945c5.926-2.221,12.366-3.646,17.926-6.901c20.672-12.091,41.102-24.69,61.528-37.29
			c14.202-8.758,27.585-7.938,40.577,2.739c8.807,7.239,18.842,10.528,29.718,7.982c6.684-1.564,13.674-3.642,19.459-7.451
			c16.836-11.091,33.511-22.509,49.857-34.446C-101.928,308.138-101.893,308.082-101.852,308.028z"/>
	</g>
	<rect x="-189.349" y="253.82" fill-rule="evenodd" clip-rule="evenodd" fill="#FFE300" width="18.416" height="15.749"/>
	<rect x="-201.798" y="258.407" fill-rule="evenodd" clip-rule="evenodd" fill="#FFE300" width="18.415" height="15.748"/>
	<rect x="-210.316" y="266.925" fill-rule="evenodd" clip-rule="evenodd" fill="#FFE300" width="18.416" height="15.748"/>
	<rect x="-155.899" y="307.22" fill-rule="evenodd" clip-rule="evenodd" fill="#FFE300" width="18.416" height="15.748"/>
	<rect x="-172.934" y="311.806" fill-rule="evenodd" clip-rule="evenodd" fill="#FFE300" width="18.416" height="15.749"/>
	<rect x="-182.762" y="315.081" fill-rule="evenodd" clip-rule="evenodd" fill="#FFE300" width="18.416" height="15.75"/>
	<rect x="-199.797" y="309.84" fill-rule="evenodd" clip-rule="evenodd" fill="#FFE300" width="18.415" height="15.749"/>
	<rect x="-206.515" y="301.009" fill-rule="evenodd" clip-rule="evenodd" fill="#FFE300" width="18.415" height="15.75"/>
	<rect x="-163.106" y="258.734" fill-rule="evenodd" clip-rule="evenodd" fill="#FFE300" width="18.415" height="15.749"/>
	<rect x="-172.521" y="253.985" fill-rule="evenodd" clip-rule="evenodd" fill="#FFE300" width="18.415" height="15.749"/>
	<rect x="-151.312" y="265.286" fill-rule="evenodd" clip-rule="evenodd" fill="#FFE300" width="18.416" height="15.75"/>
	<rect x="-138.208" y="272.493" fill-rule="evenodd" clip-rule="evenodd" fill="#FFE300" width="18.416" height="15.75"/>
	<rect x="-146.071" y="298.702" fill-rule="evenodd" clip-rule="evenodd" fill="#FFE300" width="18.416" height="15.748"/>
	<rect x="-129.691" y="298.702" fill-rule="evenodd" clip-rule="evenodd" fill="#FFE300" width="18.416" height="15.748"/>
	<rect x="-118.552" y="298.702" fill-rule="evenodd" clip-rule="evenodd" fill="#FFE300" width="18.416" height="15.748"/>
	<rect x="-127.07" y="305.909" fill-rule="evenodd" clip-rule="evenodd" fill="#FFE300" width="18.416" height="15.749"/>
	<rect x="-136.278" y="313.783" fill-rule="evenodd" clip-rule="evenodd" fill="#FFE300" width="18.416" height="15.749"/>
	<rect x="-145.416" y="319.668" fill-rule="evenodd" clip-rule="evenodd" fill="#FFE300" width="18.416" height="15.749"/>
	<rect x="-155.899" y="326.22" fill-rule="evenodd" clip-rule="evenodd" fill="#FFE300" width="18.416" height="15.75"/>
	<rect x="-163.761" y="332.117" fill-rule="evenodd" clip-rule="evenodd" fill="#FFE300" width="18.416" height="15.749"/>
	<rect x="-175.555" y="341.944" fill-rule="evenodd" clip-rule="evenodd" fill="#FFE300" width="18.416" height="15.75"/>
	<rect x="-191.935" y="341.944" fill-rule="evenodd" clip-rule="evenodd" fill="#FFE300" width="18.416" height="15.75"/>
	<rect x="-200.453" y="337.358" fill-rule="evenodd" clip-rule="evenodd" fill="#FFE300" width="18.416" height="15.75"/>
	<rect x="-207.66" y="330.151" fill-rule="evenodd" clip-rule="evenodd" fill="#FFE300" width="18.416" height="15.749"/>
	<rect x="-226.661" y="322.944" fill-rule="evenodd" clip-rule="evenodd" fill="#FFE300" width="18.416" height="15.749"/>
	<rect x="-245.007" y="322.944" fill-rule="evenodd" clip-rule="evenodd" fill="#FFE300" width="18.416" height="15.749"/>
	<rect x="-253.524" y="330.807" fill-rule="evenodd" clip-rule="evenodd" fill="#FFE300" width="18.416" height="15.749"/>
	<rect x="-263.353" y="339.979" fill-rule="evenodd" clip-rule="evenodd" fill="#FFE300" width="18.416" height="15.749"/>
	<rect x="-280.388" y="345.222" fill-rule="evenodd" clip-rule="evenodd" fill="#FFE300" width="18.416" height="15.748"/>
	<rect x="-290.216" y="351.118" fill-rule="evenodd" clip-rule="evenodd" fill="#FFE300" width="18.416" height="15.749"/>
	<rect x="-303.975" y="358.325" fill-rule="evenodd" clip-rule="evenodd" fill="#FFE300" width="18.416" height="15.749"/>
	<rect x="-315.113" y="366.843" fill-rule="evenodd" clip-rule="evenodd" fill="#FFE300" width="18.416" height="15.749"/>
	<rect x="-328.873" y="368.809" fill-rule="evenodd" clip-rule="evenodd" fill="#FFE300" width="18.415" height="15.749"/>
	<rect x="-322.321" y="358.325" fill-rule="evenodd" clip-rule="evenodd" fill="#FFE300" width="18.416" height="15.749"/>
	<rect x="-309.217" y="350.463" fill-rule="evenodd" clip-rule="evenodd" fill="#FFE300" width="18.416" height="15.749"/>
	<rect x="-299.389" y="343.255" fill-rule="evenodd" clip-rule="evenodd" fill="#FFE300" width="18.416" height="15.75"/>
	<rect x="-287.595" y="335.394" fill-rule="evenodd" clip-rule="evenodd" fill="#FFE300" width="18.416" height="15.748"/>
	<rect x="-279.077" y="327.53" fill-rule="evenodd" clip-rule="evenodd" fill="#FFE300" width="18.416" height="15.75"/>
	<rect x="-268.594" y="319.668" fill-rule="evenodd" clip-rule="evenodd" fill="#FFE300" width="18.415" height="15.749"/>
	<rect x="-257.456" y="312.461" fill-rule="evenodd" clip-rule="evenodd" fill="#FFE300" width="18.416" height="15.749"/>
	<rect x="-245.662" y="305.909" fill-rule="evenodd" clip-rule="evenodd" fill="#FFE300" width="18.415" height="15.749"/>
	<rect x="-236.489" y="294.115" fill-rule="evenodd" clip-rule="evenodd" fill="#FFE300" width="18.415" height="15.749"/>
	<rect x="-236.489" y="279.7" fill-rule="evenodd" clip-rule="evenodd" fill="#FFE300" width="18.415" height="15.75"/>
	<rect x="-249.478" y="269.771" fill-rule="evenodd" clip-rule="evenodd" fill="#FFE300" width="18.415" height="15.749"/>
	<rect x="-261.927" y="261.909" fill-rule="evenodd" clip-rule="evenodd" fill="#FFE300" width="18.416" height="15.749"/>
	<rect x="-274.594" y="254.483" fill-rule="evenodd" clip-rule="evenodd" fill="#FFE300" width="18.415" height="15.75"/>
	<rect x="-285.951" y="244" fill-rule="evenodd" clip-rule="evenodd" fill="#FFE300" width="18.416" height="15.749"/>
	<rect x="-295.998" y="235.701" fill-rule="evenodd" clip-rule="evenodd" fill="#FFE300" width="18.416" height="15.749"/>
	<rect x="-306.481" y="226.528" fill-rule="evenodd" clip-rule="evenodd" fill="#FFE300" width="18.416" height="15.75"/>
	<rect x="-318.711" y="215.171" fill-rule="evenodd" clip-rule="evenodd" fill="#FFE300" width="18.416" height="15.75"/>
	<rect x="-330.287" y="208.62" fill-rule="evenodd" clip-rule="evenodd" fill="#FFE300" width="18.415" height="15.749"/>
	<rect x="-119.863" y="272.493" fill-rule="evenodd" clip-rule="evenodd" fill="#FFE300" width="18.416" height="15.75"/>
	<rect x="-116.475" y="272.543" fill-rule="evenodd" clip-rule="evenodd" fill="#FFE300" width="18.416" height="15.749"/>
	<rect x="-122.483" y="262.011" fill-rule="evenodd" clip-rule="evenodd" fill="#FFE300" width="18.416" height="15.748"/>
	<rect x="-135.587" y="255.458" fill-rule="evenodd" clip-rule="evenodd" fill="#FFE300" width="18.415" height="15.75"/>
	<rect x="-145.416" y="248.251" fill-rule="evenodd" clip-rule="evenodd" fill="#FFE300" width="18.416" height="15.749"/>
	<rect x="-153.933" y="241.699" fill-rule="evenodd" clip-rule="evenodd" fill="#FFE300" width="18.415" height="15.75"/>
	<rect x="-161.796" y="236.457" fill-rule="evenodd" clip-rule="evenodd" fill="#FFE300" width="18.416" height="15.749"/>
	<rect x="-174.9" y="229.25" fill-rule="evenodd" clip-rule="evenodd" fill="#FFE300" width="18.416" height="15.749"/>
	<rect x="-192.59" y="229.25" fill-rule="evenodd" clip-rule="evenodd" fill="#FFE300" width="18.416" height="15.749"/>
	<rect x="-200.453" y="234.492" fill-rule="evenodd" clip-rule="evenodd" fill="#FFE300" width="18.416" height="15.749"/>
	<rect x="-246.317" y="249.562" fill-rule="evenodd" clip-rule="evenodd" fill="#FFE300" width="18.416" height="15.749"/>
	<rect x="-208.315" y="239.733" fill-rule="evenodd" clip-rule="evenodd" fill="#FFE300" width="18.416" height="15.749"/>
	<rect x="-225.351" y="247.558" fill-rule="evenodd" clip-rule="evenodd" fill="#FFE300" width="18.416" height="15.749"/>
	<rect x="-241.73" y="247.558" fill-rule="evenodd" clip-rule="evenodd" fill="#FFE300" width="18.416" height="15.749"/>
	<rect x="-254.834" y="243.009" fill-rule="evenodd" clip-rule="evenodd" fill="#FFE300" width="18.415" height="15.75"/>
	<rect x="-261.387" y="235.802" fill-rule="evenodd" clip-rule="evenodd" fill="#FFE300" width="18.416" height="15.75"/>
	<rect x="-268.594" y="229.905" fill-rule="evenodd" clip-rule="evenodd" fill="#FFE300" width="18.415" height="15.749"/>
	<rect x="-277.985" y="223.353" fill-rule="evenodd" clip-rule="evenodd" fill="#FFE300" width="18.415" height="15.75"/>
	<rect x="-287.595" y="218.548" fill-rule="evenodd" clip-rule="evenodd" fill="#FFE300" width="18.416" height="15.75"/>
	<rect x="-298.113" y="210.674" fill-rule="evenodd" clip-rule="evenodd" fill="#FFE300" width="18.416" height="15.75"/>
	<rect x="-310.343" y="207.616" fill-rule="evenodd" clip-rule="evenodd" fill="#FFE300" width="18.416" height="15.75"/>
	<rect x="-320.459" y="202.132" fill-rule="evenodd" clip-rule="evenodd" fill="#FFE300" width="18.415" height="15.749"/>
	<rect x="-329.999" y="202.157" fill-rule="evenodd" clip-rule="evenodd" fill="#FFE300" width="18.416" height="15.749"/>
	<g>
		<rect x="-218.06" y="288.558" fill-rule="evenodd" clip-rule="evenodd" width="6" height="6"/>
		<rect x="-220.06" y="288.558" fill-rule="evenodd" clip-rule="evenodd" width="6" height="6"/>
		
			<rect x="-217.665" y="286.952" transform="matrix(0.9899 -0.1414 0.1414 0.9899 -43.1702 -27.4481)" fill-rule="evenodd" clip-rule="evenodd" width="6" height="6"/>
		<rect x="-215.06" y="289.558" fill-rule="evenodd" clip-rule="evenodd" width="6" height="6"/>
		<rect x="-215.06" y="288.558" fill-rule="evenodd" clip-rule="evenodd" width="6" height="6"/>
		<rect x="-218.06" y="291.558" fill-rule="evenodd" clip-rule="evenodd" width="6" height="6"/>
	</g>
</g>
<g>
	<g>
		<path fill-rule="evenodd" clip-rule="evenodd" fill="#FFE300" d="M257.355,432.306c0.023-0.344,3.229,2.019,0.229-0.981
			c0.045-1.139-0.005-2.258-0.298-3.305c-0.097-0.341-0.229-0.65-0.376-0.945c-5.146-1.882-10.343-3.641-15.593-5.266
			c-1.071,0.032-2.148,0.091-3.243,0.136c-0.303,0.185-0.606,0.361-0.918,0.514c-13.894,6.776-27,16.051-42.045,19.344
			c-11.527,2.522-20.572,0.808-27.614-7.617c-9.913-11.86-8.338-27.533-0.988-34.833c7.075-7.027,15.075-10.027,27.694-7.838
			c13.787,2.392,25.568,11.604,38.409,17.238c1.303,0.573,2.642,1.052,4.119,1.525c0.658,0.003,1.318-0.015,1.979-0.034
			c2.438-0.356,4.72-0.945,6.983-1.678c3.051-1.216,6.027-2.603,8.934-4.136c0.254-0.191,0.506-0.38,0.744-0.576
			c1.641-1.356,2.846-2.951,3.848-4.659c-0.022-0.084-0.033-0.172-0.059-0.255c-0.223-0.421-0.469-0.838-0.714-1.258
			c-18.419-16.147-38.931-28.642-60.561-38.734c-12.769-5.956-26.38-5.473-37.736,3.924c-15.545,12.863-29.737,11.93-45.569,0.98
			c-19.308-13.349-39.399-25.264-59.328-37.427c-11.282-6.885-17.21-5.891-25.737,4.071c4.481,3.698,8.256,7.192,12.341,10.138
			c30.414,21.928,60.886,43.744,91.344,65.591c9.265,6.647,8.88,13.599-0.736,20.211c-30.101,20.705-59.962,41.867-90.235,62.236
			c-8.193,5.518-9.028,11.346-3.703,21.629c5.917-2.293,12.346-3.767,17.897-7.126c20.639-12.485,41.036-25.498,61.429-38.508
			c14.179-9.045,27.541-8.195,40.511,2.828c8.792,7.477,18.812,10.872,29.67,8.243c6.673-1.615,13.351-4.243,19.428-7.693
			c17.122-9.721,36.122-16.721,52.122-32.721C259.623,435.271,257.314,432.361,257.355,432.306z"/>
	</g>
	<rect x="222.584" y="395.324" fill-rule="evenodd" clip-rule="evenodd" fill="#FFE300" width="18.416" height="15.75"/>
	<rect x="241.169" y="398.324" fill-rule="evenodd" clip-rule="evenodd" fill="#FFE300" width="18.415" height="12.75"/>
	<rect x="240.169" y="422.324" fill-rule="evenodd" clip-rule="evenodd" fill="#FFE300" width="18.415" height="15"/>
	<rect x="241.584" y="421.574" fill-rule="evenodd" clip-rule="evenodd" fill="#FFE300" width="18.416" height="15.75"/>
	<rect x="221.376" y="421.449" fill-rule="evenodd" clip-rule="evenodd" fill="#FFE300" width="18.416" height="15.75"/>
	<g>
		
			<ellipse transform="matrix(-0.9964 0.0848 -0.0848 -0.9964 335.2552 819.1086)" fill-rule="evenodd" clip-rule="evenodd" fill="none" stroke="#000000" stroke-miterlimit="10" cx="150.232" cy="416.674" rx="4.647" ry="4.653"/>
		<ellipse fill-rule="evenodd" clip-rule="evenodd" cx="150.232" cy="416.705" rx="2.733" ry="2.702"/>
	</g>
</g>
</svg>
